<?xml version="1.0" standalone="no"?>
<!DOCTYPE svg PUBLIC "-//W3C//DTD SVG 20010904//EN"
 "http://www.w3.org/TR/2001/REC-SVG-20010904/DTD/svg10.dtd">
<svg version="1.0" xmlns="http://www.w3.org/2000/svg"
 width="1022.000000pt" height="1033.000000pt" viewBox="0 0 1022.000000 1033.000000"
 preserveAspectRatio="xMidYMid meet">

<g transform="translate(0.000000,1033.000000) scale(0.100000,-0.100000)"
fill="#000000" stroke="none">
<path d="M4689 9367 c-13 -5 -45 -13 -70 -17 -30 -6 -77 -29 -138 -69 -82 -53
-96 -59 -119 -50 -46 18 -89 2 -118 -41 -38 -57 -74 -65 -74 -15 0 30 -16 41
-23 15 -3 -12 -14 -20 -26 -20 -12 0 -21 -4 -21 -10 0 -11 -30 -13 -54 -4 -9
3 -16 13 -16 21 0 11 -6 10 -28 -6 -19 -13 -38 -44 -57 -93 -16 -41 -41 -86
-58 -102 -25 -24 -28 -32 -19 -47 7 -10 12 -25 12 -33 0 -8 6 -17 13 -19 9 -4
9 -6 0 -6 -6 -1 -19 9 -27 21 -16 22 -16 22 -17 -12 -2 -62 3 -94 18 -124 13
-25 13 -31 2 -40 -24 -19 -22 -187 3 -318 23 -123 38 -333 26 -360 -4 -9 -21
-19 -38 -23 -40 -9 -51 -33 -52 -109 -1 -134 50 -356 82 -356 5 0 12 -10 16
-22 3 -13 32 -48 63 -78 49 -47 59 -63 68 -110 6 -30 27 -101 46 -157 32 -95
35 -114 42 -267 4 -120 3 -171 -6 -188 -14 -25 -56 -74 -154 -176 l-70 -72
-130 -44 c-71 -24 -155 -55 -185 -69 -30 -13 -113 -44 -185 -67 -71 -24 -179
-62 -240 -85 -60 -24 -144 -48 -185 -55 -156 -26 -488 -143 -558 -197 -42 -32
-62 -77 -62 -140 0 -53 -26 -168 -69 -313 -16 -52 -37 -129 -46 -170 -10 -41
-26 -100 -36 -130 -27 -83 -37 -128 -59 -249 -11 -61 -27 -125 -35 -143 -8
-18 -26 -88 -39 -156 -14 -68 -29 -129 -35 -136 -18 -22 -33 -110 -32 -198 0
-51 -6 -107 -15 -135 -16 -53 -33 -299 -34 -490 0 -147 -14 -258 -41 -320 -11
-25 -24 -65 -29 -88 -16 -71 -21 -231 -9 -282 6 -26 12 -120 14 -208 1 -139 6
-178 33 -295 17 -74 35 -162 41 -195 20 -116 121 -527 175 -708 14 -48 37
-124 50 -170 14 -45 48 -143 76 -217 28 -74 57 -155 65 -180 7 -25 27 -83 44
-130 18 -47 45 -122 61 -167 55 -156 127 -273 167 -273 16 0 63 -40 63 -54 1
-16 36 -56 49 -56 6 0 11 -10 11 -22 0 -12 3 -18 6 -15 10 10 44 -12 44 -28 0
-8 5 -15 10 -15 6 0 10 -9 10 -21 0 -13 -4 -18 -12 -13 -7 3 0 -6 15 -21 23
-22 31 -24 43 -14 8 6 18 9 22 5 4 -4 -3 -16 -15 -26 -13 -10 -23 -21 -23 -25
0 -4 7 -2 15 5 16 13 35 6 34 -13 0 -9 -2 -9 -6 1 -7 17 -23 15 -23 -3 0 -8 8
-19 19 -24 10 -6 21 -20 24 -31 3 -11 1 -18 -4 -14 -5 3 -6 -2 -3 -10 3 -9 10
-13 15 -10 18 11 39 -17 33 -42 -4 -15 -2 -24 6 -24 6 0 9 4 5 9 -3 5 -1 12 5
16 5 3 10 -1 10 -9 0 -24 82 -22 103 2 10 10 17 24 17 30 0 6 14 19 30 27 18
9 28 21 24 27 -4 7 -3 8 4 4 7 -4 12 -2 12 4 0 6 5 8 10 5 14 -9 42 14 33 28
-3 6 -1 7 5 3 7 -4 12 -3 12 2 0 5 10 14 23 20 12 6 16 11 10 11 -9 1 -10 8
-3 25 7 20 6 26 -8 29 -15 4 -15 5 1 6 16 1 16 4 -3 41 -11 22 -25 40 -30 40
-6 0 -10 6 -10 14 0 8 -9 18 -20 21 -11 3 -23 17 -26 31 -4 14 -13 24 -24 24
-12 0 -27 18 -44 52 -14 29 -25 47 -26 41 0 -26 -21 -12 -27 17 -3 17 -15 38
-27 46 -21 16 -21 16 3 9 15 -5 21 -3 17 3 -3 6 2 13 11 15 13 3 12 5 -5 6
-13 0 -21 5 -18 10 4 5 -4 7 -16 5 -13 -3 18 16 67 41 58 29 101 44 120 42 28
-2 30 -4 30 -46 0 -30 5 -46 15 -50 8 -3 16 -17 18 -30 1 -13 14 -35 27 -49
20 -19 23 -27 13 -34 -10 -6 -10 -8 0 -8 6 0 12 -9 12 -20 0 -14 8 -22 28 -26
16 -3 34 -17 44 -35 12 -20 25 -29 43 -29 23 0 31 -12 26 -42 0 -4 8 -5 19 -3
38 7 20 -13 -67 -76 -49 -35 -139 -104 -200 -154 l-113 -90 2232 -3 c1893 -2
2235 0 2252 12 68 45 146 130 181 198 35 66 39 81 43 168 l4 95 -41 63 c-23
34 -41 69 -41 76 0 38 32 86 72 108 42 23 43 25 51 88 4 36 5 358 3 715 -4
595 -6 662 -25 790 -16 106 -21 189 -21 342 0 111 -5 246 -11 300 -11 96 -11
99 16 163 36 85 34 129 -11 265 -20 61 -42 133 -49 160 -33 123 -54 193 -70
230 -37 86 -45 143 -45 333 0 177 -21 389 -49 500 -5 20 -12 65 -16 100 -3 34
-13 81 -21 105 -8 23 -20 76 -25 117 -22 153 -128 449 -254 705 -83 169 -104
217 -126 290 -29 98 -69 206 -94 260 -42 92 -109 133 -256 160 -46 9 -97 20
-114 25 -16 5 -104 14 -195 20 -121 7 -197 17 -285 38 -66 16 -181 42 -255 57
-74 15 -180 39 -235 52 -55 14 -128 31 -161 38 -34 8 -81 23 -104 35 -23 12
-44 19 -47 16 -3 -2 -7 -26 -9 -53 -3 -26 -10 -63 -15 -81 -8 -23 -8 -37 0
-46 10 -12 32 -174 46 -336 4 -41 13 -113 21 -160 31 -174 33 -194 29 -198 -2
-3 -20 9 -40 27 -41 35 -51 37 -84 15 -18 -13 -36 -15 -90 -10 -36 4 -97 10
-135 12 -39 3 -73 7 -78 10 -4 3 -8 1 -8 -4 0 -14 47 -32 83 -32 18 0 42 -3
55 -6 20 -6 21 -8 9 -23 -8 -9 -18 -26 -21 -38 -7 -22 -6 -22 31 -9 71 25 110
28 143 11 16 -8 40 -14 53 -11 17 3 27 -3 39 -25 10 -16 13 -29 8 -29 -5 0 -9
-8 -9 -17 0 -10 -1 -83 -2 -163 -1 -80 2 -161 6 -179 6 -28 11 -32 31 -28 22
4 24 1 25 -42 3 -129 4 -150 10 -155 3 -3 3 -27 -1 -52 -8 -51 -2 -94 12 -94
5 0 8 -6 7 -12 -3 -19 12 -88 20 -88 12 0 6 -95 -7 -118 -16 -29 -9 -54 15
-51 42 4 43 1 39 -78 -2 -43 -1 -71 2 -63 9 25 28 -78 31 -168 1 -46 7 -96 13
-110 6 -15 10 -43 9 -62 -1 -27 1 -31 9 -20 7 11 8 5 3 -19 -3 -20 -2 -32 3
-29 5 4 10 -10 12 -30 1 -20 6 -38 11 -42 19 -12 -7 -45 -39 -50 -25 -4 -37
-14 -51 -40 -11 -19 -29 -37 -40 -40 -12 -3 -26 -16 -31 -29 -7 -21 -6 -23 13
-18 12 3 32 2 45 -3 26 -10 44 -58 25 -69 -9 -6 -8 -11 4 -21 8 -7 15 -17 15
-22 0 -6 12 -19 26 -30 14 -12 30 -31 34 -44 5 -13 18 -24 28 -24 10 0 28 -11
40 -25 12 -14 26 -25 32 -25 5 0 10 -4 10 -10 0 -6 -30 -11 -67 -11 l-68 -2
63 -8 c86 -11 96 -15 109 -46 22 -50 50 -93 57 -86 4 4 4 0 1 -8 -3 -8 1 -29
10 -45 8 -16 15 -22 15 -14 0 8 7 2 15 -14 8 -15 12 -33 8 -39 -3 -5 -2 -7 4
-4 5 3 25 -36 43 -86 19 -51 40 -103 47 -117 15 -29 17 -43 4 -36 -4 3 -6 -6
-3 -19 2 -14 8 -25 14 -25 5 0 17 -19 27 -42 23 -55 33 -118 19 -115 -15 3
-29 -53 -22 -87 9 -44 26 -57 60 -46 23 7 20 14 -6 12 -3 0 -6 14 -7 31 -2 23
0 28 7 16 5 -8 25 -33 44 -54 35 -38 63 -95 47 -95 -5 0 -8 -24 -7 -54 0 -30
4 -52 9 -49 6 3 11 -31 5 -39 -1 -2 5 -14 12 -28 14 -26 17 -39 26 -105 3 -22
9 -49 14 -60 5 -11 11 -27 13 -35 4 -12 6 -11 6 3 1 23 8 22 36 -9 14 -15 25
-22 25 -15 0 33 18 2 39 -66 12 -43 34 -107 48 -143 15 -35 27 -77 27 -92 2
-34 68 -106 172 -184 62 -46 84 -70 84 -90 0 -2 -11 -4 -24 -4 -16 0 -34 -12
-49 -31 -27 -35 -59 -35 -50 0 3 13 -5 30 -26 52 -17 17 -31 27 -31 20 0 -7
-10 -9 -27 -6 l-28 6 30 -15 c17 -9 21 -14 10 -11 -11 2 -27 0 -35 -5 -12 -7
-10 -14 15 -37 17 -15 40 -51 51 -79 l21 -51 -35 -11 c-29 -9 -47 -7 -121 17
-47 16 -106 33 -131 39 -66 16 -178 18 -192 4 -17 -17 -1 -28 62 -41 30 -6 64
-14 75 -16 11 -3 42 -8 70 -11 27 -3 64 -13 82 -24 21 -12 47 -18 78 -16 25 1
44 -2 42 -7 -5 -16 -141 -66 -164 -60 -15 3 -25 0 -29 -11 -4 -9 -18 -16 -34
-16 -15 0 -39 -9 -53 -20 -14 -11 -28 -20 -31 -20 -4 0 -16 -8 -27 -19 -11
-10 -57 -29 -102 -42 -45 -12 -101 -31 -125 -42 -38 -16 -91 -19 -137 -7 -30
7 -65 -1 -65 -16 0 -14 -2 -15 -17 -3 -11 10 -14 10 -9 2 4 -7 3 -13 -3 -13
-5 0 -13 9 -16 20 -4 11 -11 18 -16 15 -5 -3 -6 1 -3 9 3 9 1 16 -5 16 -6 0
-11 -12 -11 -26 0 -14 -5 -34 -11 -45 -9 -18 -19 -20 -119 -18 -60 2 -113 0
-116 -4 -4 -4 -13 -2 -21 4 -9 8 -17 8 -26 1 -7 -6 -56 -15 -109 -21 -53 -5
-105 -14 -115 -19 -20 -11 -119 -7 -173 6 l-35 9 27 11 c14 6 29 16 33 21 7
12 -17 41 -34 41 -6 0 -15 19 -22 42 -6 23 -17 51 -25 62 -8 11 -14 30 -14 42
0 33 -10 54 -26 54 -8 0 -14 7 -14 15 0 8 -9 20 -20 27 -11 7 -20 18 -20 25 0
7 -9 13 -20 13 -12 0 -20 7 -20 17 0 16 -76 93 -92 93 -13 0 -31 42 -20 49 6
3 12 20 14 36 2 21 8 30 20 29 12 -1 18 9 23 37 8 46 20 51 21 10 2 -54 10
-63 51 -55 21 4 40 8 42 10 8 7 7 50 -1 67 -6 12 -4 19 7 23 17 7 21 34 4 34
-8 0 -8 5 1 15 7 8 22 15 34 15 l21 1 -22 18 c-31 26 -29 34 6 26 18 -4 32 -2
36 5 4 7 18 9 31 6 17 -5 24 -2 24 8 0 8 5 16 12 18 7 3 5 13 -8 33 -10 16
-17 37 -16 47 2 10 -3 18 -11 18 -17 0 -28 43 -16 62 4 7 3 19 -4 27 -7 8 -11
16 -9 18 1 1 2 6 1 11 -1 4 0 18 1 31 1 13 -3 21 -8 17 -5 -3 -13 14 -16 38
-4 26 -17 55 -31 71 -24 25 -30 38 -26 59 1 5 -1 16 -5 25 -4 9 -6 31 -5 50 2
19 -3 37 -11 42 -11 7 -11 9 1 9 10 0 11 3 2 14 -8 10 -9 16 -1 21 6 3 7 12 3
18 -4 7 -8 32 -8 57 0 38 -3 45 -25 51 -16 4 -19 7 -7 8 20 1 23 21 5 39 -9 9
-9 12 0 12 7 0 12 14 12 34 0 25 -6 38 -25 50 -20 13 -25 25 -25 56 0 54 20
51 21 -2 1 -41 1 -42 11 -15 11 30 25 31 42 3 8 -14 8 -20 -1 -23 -22 -8 -14
-23 11 -23 14 0 38 -12 55 -26 17 -14 45 -30 63 -35 34 -9 109 -95 129 -147 5
-14 18 -31 28 -38 10 -7 24 -26 30 -43 7 -16 26 -35 42 -42 17 -7 29 -19 28
-28 -3 -38 2 -59 21 -81 11 -13 20 -37 21 -54 0 -17 2 -47 4 -66 2 -19 -4 -55
-12 -79 -12 -36 -12 -48 -2 -74 7 -17 12 -43 11 -58 -2 -19 5 -33 19 -43 15
-10 23 -27 24 -53 8 -108 19 -180 31 -193 9 -11 11 -29 7 -52 -4 -27 -1 -41
11 -53 18 -18 19 -16 16 50 -3 80 -58 445 -91 603 -17 83 -61 353 -76 474 -3
21 -9 38 -14 38 -11 0 -11 -7 1 -50 6 -19 13 -73 15 -120 6 -81 5 -84 -10 -56
-8 15 -15 35 -15 42 0 8 -4 14 -10 14 -5 0 -10 9 -10 20 0 11 -9 29 -20 40
-11 11 -20 27 -20 35 0 8 -5 15 -11 15 -6 0 -9 6 -6 14 3 8 -1 17 -9 20 -8 3
-14 12 -14 19 0 8 -11 19 -25 25 -14 6 -25 18 -25 27 0 8 -4 15 -10 15 -5 0
-10 9 -10 19 0 11 -15 34 -32 52 -18 18 -32 36 -31 41 2 4 -2 8 -7 8 -6 0 -10
7 -10 16 0 9 -5 12 -12 8 -7 -4 -8 -3 -4 5 8 12 -30 50 -51 51 -7 0 -13 7 -13
16 0 9 -8 23 -17 30 -15 11 -16 15 -4 23 11 7 9 11 -8 21 -15 8 -20 17 -16 31
4 13 2 19 -8 19 -8 0 -21 8 -28 17 -10 11 -10 14 -1 9 6 -4 12 -2 12 3 0 6 -4
11 -10 11 -5 0 -10 8 -11 18 0 14 -2 14 -9 -3 -7 -18 -9 -16 -15 12 -9 38 -5
49 12 45 7 -2 13 2 13 8 0 5 -9 10 -19 10 -11 0 -23 5 -26 10 -3 6 1 10 9 10
22 0 20 20 -1 21 -15 0 -15 2 2 9 16 7 17 9 3 9 -21 1 -27 19 -17 54 6 21 4
27 -8 27 -9 0 -13 6 -9 15 3 8 0 15 -6 15 -6 0 -9 2 -6 6 3 3 -3 28 -14 57
-11 29 -22 75 -24 102 -4 47 -19 121 -32 155 -3 8 -7 35 -8 60 -3 47 -14 103
-45 237 -10 45 -19 91 -19 102 0 11 -4 23 -10 26 -5 3 -10 18 -10 33 0 28 -21
96 -33 108 -4 4 -7 19 -7 33 0 24 -17 82 -31 106 -3 6 -5 27 -3 47 1 21 -2 36
-6 33 -4 -3 -10 18 -12 45 -6 57 -47 145 -69 145 -16 0 -21 28 -38 205 -16
163 -41 392 -52 478 -13 104 -12 147 4 134 49 -40 139 -69 120 -39 -4 7 3 6
17 -4 31 -19 80 -32 80 -21 0 9 -75 65 -100 75 -12 4 -11 6 3 6 9 1 17 9 17
19 0 13 -2 14 -9 3 -6 -9 -11 -10 -15 -3 -4 6 -14 9 -24 5 -9 -3 -6 3 8 13 15
11 39 17 65 17 l40 -2 -38 8 c-42 9 -87 30 -87 42 0 4 -10 5 -22 2 -13 -3 -20
-3 -16 1 3 4 -5 38 -19 74 -27 70 -77 254 -98 358 -7 34 -15 66 -19 72 -14 22
-37 292 -27 309 8 14 10 7 11 -32 0 -51 23 -163 39 -200 5 -11 17 -54 26 -95
21 -90 62 -192 144 -359 34 -68 61 -130 61 -137 0 -15 18 -16 65 -4 28 7 27 8
-13 9 -31 1 -44 6 -48 19 -3 9 -18 46 -34 82 -26 60 -26 66 -12 88 15 23 16
23 23 6 5 -14 8 -15 9 -4 1 13 2 13 13 0 7 -9 31 -22 55 -29 23 -8 42 -18 42
-23 0 -19 20 -6 21 15 1 19 2 20 6 3 4 -16 8 -11 19 19 7 21 10 43 7 49 -4 5
1 7 11 3 13 -5 17 -3 13 7 -4 11 1 12 26 5 59 -15 82 -22 92 -29 6 -4 45 -6
87 -6 43 1 79 -3 81 -8 1 -4 33 -10 71 -13 57 -3 70 -1 83 14 8 10 12 13 9 7
-3 -7 0 -14 8 -17 19 -8 28 3 16 18 -8 9 -6 14 5 19 9 3 15 0 15 -9 0 -19 10
-19 39 1 23 16 24 16 42 -7 13 -17 14 -26 6 -31 -9 -6 -9 -8 1 -8 6 0 12 -4
12 -8 0 -5 -28 -9 -61 -10 -71 -1 -95 -12 -28 -12 24 0 77 -6 117 -14 54 -10
74 -11 77 -2 7 20 43 259 50 331 4 39 7 114 8 167 2 81 0 93 -10 75 -7 -12
-12 -34 -13 -49 0 -15 -6 -33 -13 -40 -8 -7 -19 -24 -26 -36 -7 -12 -16 -20
-21 -17 -6 3 -7 -1 -4 -9 4 -12 0 -14 -21 -10 -21 4 -26 1 -22 -9 6 -15 -10
-37 -27 -37 -5 0 -1 7 10 16 18 15 18 15 -8 10 -22 -5 -26 -3 -22 9 4 8 1 15
-5 15 -6 0 -11 -4 -11 -8 0 -5 -7 -9 -15 -9 -9 0 -14 6 -11 14 3 7 2 13 -3 13
-16 0 -20 -13 -10 -32 14 -26 1 -38 -16 -15 -17 23 -29 6 -21 -31 3 -15 3 -21
0 -14 -3 7 -24 12 -50 12 -31 0 -50 6 -64 20 -11 11 -23 20 -28 19 -13 -2 -52
13 -52 20 0 4 15 15 33 25 75 39 109 64 96 68 -10 4 -6 12 14 29 15 14 27 33
27 44 0 17 2 17 10 5 7 -11 10 -7 10 17 0 17 -4 34 -9 37 -14 9 0 60 21 74 20
14 24 32 7 32 -5 0 -7 -4 -4 -10 11 -17 -12 -11 -26 8 -7 9 -10 14 -5 10 8 -6
31 10 89 65 17 15 33 27 37 27 3 0 16 9 28 20 12 12 22 18 22 15 0 -3 12 6 27
20 15 14 32 25 38 25 5 0 21 26 35 57 14 31 39 75 56 97 17 23 43 68 58 101
15 33 32 68 37 78 5 9 5 17 0 17 -5 0 -16 -15 -25 -32 -12 -26 -16 -28 -16
-13 -1 19 -2 19 -9 1 -7 -18 -8 -18 -14 -3 -3 9 -16 17 -27 17 -11 0 -20 5
-20 11 0 6 -7 8 -16 5 -8 -3 -12 -2 -9 3 3 5 1 12 -5 16 -5 3 -10 1 -10 -5 0
-7 -9 -9 -22 -5 -16 4 -19 3 -9 -3 7 -5 9 -12 5 -15 -5 -3 -17 6 -27 19 -17
23 -17 23 0 18 17 -5 17 -5 1 6 -13 8 -17 21 -14 49 1 21 6 42 9 48 15 24 -24
153 -46 153 -6 0 -19 8 -30 18 -19 16 -19 16 -13 -5 6 -18 2 -22 -24 -28 -16
-4 -28 -11 -24 -16 3 -5 -7 -14 -23 -20 -15 -5 -30 -14 -33 -20 -4 -5 -24 -1
-47 11 -22 11 -59 22 -81 26 -29 5 -39 10 -35 20 11 29 38 33 84 13 33 -15 48
-18 61 -10 14 9 16 8 12 -4 -7 -18 31 -21 42 -3 4 6 3 8 -3 5 -6 -4 -13 2 -16
13 -3 11 -14 20 -24 20 -33 0 -45 21 -25 44 12 14 13 17 2 11 -13 -8 -13 -7
-1 9 8 9 34 29 58 43 24 14 42 30 40 36 -2 6 -24 16 -50 24 -26 7 -46 19 -44
25 1 7 -17 15 -43 19 -25 5 -72 17 -105 27 -70 23 -79 43 -44 92 20 26 22 35
12 60 -6 17 -8 28 -4 26 4 -3 8 9 9 27 1 53 17 132 25 130 16 -6 21 -2 8 6
-11 7 -11 13 2 37 8 16 23 44 32 62 16 30 19 32 39 19 16 -11 22 -28 27 -78 6
-69 50 -179 72 -179 7 0 19 6 26 13 11 10 13 10 7 0 -4 -8 -1 -13 8 -13 8 0
20 -8 25 -17 6 -10 11 -15 11 -11 0 4 11 3 24 -2 15 -5 27 -5 34 2 6 6 32 13
58 16 54 5 129 29 102 33 -10 1 -22 3 -28 4 -5 1 -12 3 -15 4 -3 0 5 11 16 22
22 22 48 26 85 14 27 -9 67 30 58 57 -6 20 11 25 19 6 4 -8 6 -9 6 -2 1 6 -6
17 -14 24 -8 7 -15 20 -15 29 0 14 -2 14 -10 1 -8 -12 -10 -11 -10 8 0 12 -4
22 -10 22 -5 0 -10 9 -10 20 0 11 -4 20 -10 20 -23 0 -7 17 28 30 20 7 31 15
24 18 -9 3 -10 8 -3 16 12 15 -24 76 -46 76 -8 0 -12 -4 -9 -9 6 -10 -54 -4
-104 9 -19 6 -56 10 -82 10 -26 0 -49 4 -53 10 -3 5 -11 7 -18 4 -7 -2 -55 -6
-106 -7 -66 -2 -95 1 -98 9 -2 7 -15 10 -29 8 -13 -2 -24 0 -24 5 0 5 -9 7
-19 4 -13 -3 -29 4 -47 22 -14 14 -32 24 -40 21 -8 -3 -14 -2 -14 3 0 4 -13 6
-29 3 -16 -2 -39 1 -51 8 -18 10 -21 10 -14 -2 6 -11 5 -11 -9 1 -9 7 -23 11
-31 8 -8 -3 -19 0 -25 7 -6 7 -22 11 -34 9 -14 -3 -31 2 -40 11 -8 9 -23 16
-31 16 -27 0 -19 39 9 46 14 3 23 10 20 14 -3 5 3 9 12 9 43 1 64 9 83 31 11
13 20 27 20 31 0 5 7 6 15 2 9 -3 15 -2 13 3 -6 18 25 74 41 76 18 1 27 0 86
-8 37 -5 46 -2 89 34 28 23 55 38 65 35 19 -5 74 34 66 47 -9 15 42 33 58 21
1 -2 33 -4 70 -6 38 -2 74 -8 81 -14 6 -5 33 -11 59 -13 26 -2 47 -6 47 -10 0
-5 10 -8 23 -8 12 0 39 -9 60 -20 20 -11 37 -17 37 -13 0 17 51 -52 57 -76 3
-14 12 -33 20 -42 9 -11 16 -52 19 -125 3 -60 11 -138 19 -174 8 -36 16 -137
19 -225 15 -424 20 -505 28 -497 10 10 12 74 4 158 -5 66 8 135 27 146 9 4 15
21 15 36 0 36 37 235 56 297 39 126 48 201 37 308 -6 56 -17 117 -26 135 -9
17 -15 42 -14 54 1 13 -3 37 -10 53 -7 17 -10 42 -7 56 9 48 -20 211 -47 262
-27 49 -62 86 -84 87 -7 0 -53 41 -102 91 -87 89 -89 90 -126 83 -33 -6 -37
-5 -31 12 5 18 -1 19 -77 19 -92 1 -153 17 -162 45 -4 11 -19 20 -43 24 -63
11 -327 13 -353 3z m-769 -596 c0 -5 -9 -7 -20 -4 -11 3 -20 7 -20 9 0 2 9 4
20 4 11 0 20 -4 20 -9z m1460 -767 l25 -26 -25 7 c-14 3 -34 10 -45 15 -11 4
-28 11 -38 14 -10 3 -15 11 -11 17 10 17 66 1 94 -27z m-756 -5 c-8 -14 -34
-11 -34 4 0 8 3 17 7 20 9 9 34 -13 27 -24z m-380 -1 c-5 -8 -2 -9 11 -4 18 7
18 6 1 -13 -17 -19 -17 -19 6 -15 12 2 16 1 8 -2 -8 -4 -18 -12 -22 -18 -4 -6
-11 0 -16 14 -10 27 -6 50 10 50 5 0 6 -5 2 -12z m-50 -24 c3 -8 2 -12 -4 -9
-6 3 -10 10 -10 16 0 14 7 11 14 -7z m1155 -42 c-7 -3 -20 -10 -28 -16 -12 -9
-12 -8 -1 11 8 13 20 19 29 15 13 -5 13 -6 0 -10z m-1115 1 c8 -9 76 -11 76
-2 0 14 45 1 48 -14 2 -9 9 -17 15 -18 7 -1 31 -3 55 -5 24 -2 54 -12 67 -22
15 -12 41 -20 66 -20 23 -1 45 -6 50 -13 4 -6 13 -10 21 -7 8 4 23 -8 36 -28
l21 -33 -34 -33 c-19 -18 -35 -38 -35 -46 0 -7 -11 -24 -25 -38 -14 -13 -24
-30 -22 -37 1 -7 -9 -12 -25 -12 -14 -1 -33 -7 -42 -14 -12 -10 -16 -10 -16
-2 0 7 -4 10 -9 6 -5 -3 -13 0 -16 6 -4 5 -14 8 -22 5 -9 -4 -23 2 -32 12 -22
26 -71 35 -72 13 0 -12 -2 -11 -9 4 -5 11 -9 17 -9 12 -1 -4 -19 4 -40 18 -35
22 -40 23 -43 7 -2 -9 -5 10 -6 43 -2 96 -12 135 -36 145 -26 11 -56 35 -56
44 0 4 6 4 13 -1 26 -16 45 -13 40 7 -4 16 -2 19 12 13 13 -4 16 -3 11 5 -8
13 6 17 18 5z m-352 -45 c-3 -14 -2 -19 6 -14 7 4 12 2 12 -3 0 -6 -4 -11 -9
-11 -15 0 -24 19 -17 35 8 23 15 18 8 -7z m210 -16 c-6 -2 -8 -10 -5 -18 3 -8
0 -14 -5 -14 -16 0 -24 18 -11 25 5 4 8 14 4 22 -5 14 -3 14 11 2 9 -7 12 -15
6 -17z m-163 -36 c-3 -3 -16 -2 -29 1 -22 6 -22 7 -4 14 18 6 43 -5 33 -15z
m241 -12 c0 -8 -4 -12 -10 -9 -5 3 -10 13 -10 21 0 8 5 12 10 9 6 -3 10 -13
10 -21z m40 18 c0 -5 -7 -9 -15 -9 -8 0 -15 4 -15 9 0 4 7 8 15 8 8 0 15 -4
15 -8z m-13 -44 c-3 -8 -6 -5 -6 6 -1 11 2 17 5 13 3 -3 4 -12 1 -19z m584
-127 c7 -16 18 -27 24 -23 5 3 4 -1 -3 -10 -14 -17 -72 -30 -72 -16 0 5 -4 6
-10 3 -5 -3 -17 -2 -27 3 -15 9 -13 13 14 41 39 39 58 39 74 2z m-849 -58 c-6
-3 -9 -10 -6 -16 4 -7 1 -7 -7 1 -12 11 -12 14 1 22 8 5 17 6 20 3 3 -3 -1 -8
-8 -10z m912 -239 c18 -7 22 -24 5 -24 -6 0 -17 7 -25 15 -16 16 -7 19 20 9z
m261 -169 c5 -7 27 -16 48 -19 22 -4 41 -14 45 -24 4 -9 20 -36 35 -58 26 -39
28 -46 19 -93 -8 -44 -7 -50 5 -39 11 9 13 8 11 -3 -5 -21 -32 -28 -44 -11
-10 14 -13 12 -24 -9 -7 -13 -25 -33 -39 -44 -14 -11 -33 -28 -43 -37 -31 -31
-191 -20 -219 15 -13 16 -29 20 -85 21 -38 1 -76 6 -84 11 -22 14 -100 33 -94
23 11 -17 -9 -7 -27 14 -11 11 -19 16 -19 11 0 -16 -45 -21 -58 -7 -16 18 -15
25 3 17 9 -3 15 -2 14 3 -4 19 14 44 32 44 10 0 19 5 19 10 0 6 5 10 10 10 6
0 10 -7 10 -15 0 -8 5 -15 11 -15 6 0 8 9 4 23 -5 16 -4 18 3 8 6 -8 24 -14
41 -15 17 0 31 -5 31 -11 0 -5 5 -2 11 8 6 10 15 14 22 10 23 -14 130 -12 145
4 8 7 22 13 30 11 26 -5 87 57 87 89 1 36 -28 65 -59 57 -15 -3 -27 -1 -32 8
-4 7 -4 10 0 6 4 -3 16 2 25 11 16 16 26 17 87 8 38 -5 73 -16 79 -22z m-533
-177 c-30 -12 -36 -8 -16 11 13 12 21 15 26 7 4 -6 0 -14 -10 -18z m418 -438
c0 -5 -2 -10 -4 -10 -3 0 -8 5 -11 10 -3 6 -1 10 4 10 6 0 11 -4 11 -10z m135
-370 c3 -5 1 -10 -4 -10 -6 0 -11 5 -11 10 0 6 2 10 4 10 3 0 8 -4 11 -10z
m-798 -1632 c-2 -18 -4 -6 -4 27 0 33 2 48 4 33 2 -15 2 -42 0 -60z m20 10
c-3 -8 -6 -5 -6 6 -1 11 2 17 5 13 3 -3 4 -12 1 -19z m393 -1492 c0 -3 -4 -8
-10 -11 -5 -3 -10 -1 -10 4 0 6 5 11 10 11 6 0 10 -2 10 -4z m96 -103 c-4 -4
-11 -1 -16 7 -16 25 -11 35 7 17 9 -9 13 -20 9 -24z m-1926 -38 c9 -11 4 -67
-24 -267 -19 -139 -36 -264 -38 -278 -4 -35 -27 -31 -48 8 -16 30 -17 37 -4
67 18 45 18 90 -2 149 -15 43 -15 52 0 105 9 31 16 87 16 124 l0 67 38 19 c45
24 47 25 62 6z m1944 -117 c-3 -5 -12 -4 -19 2 -8 7 -19 9 -25 5 -7 -4 -6 1 1
14 12 19 15 19 31 4 10 -9 15 -20 12 -25z m-14 -28 c0 -5 -4 -10 -10 -10 -5 0
-10 5 -10 10 0 6 5 10 10 10 6 0 10 -4 10 -10z m2100 -150 c0 -41 -4 -70 -10
-70 -15 0 -29 42 -20 60 5 9 8 22 8 30 -2 32 2 50 12 50 6 0 10 -30 10 -70z
m-743 -82 c-3 -8 -6 -5 -6 6 -1 11 2 17 5 13 3 -3 4 -12 1 -19z m43 -70 c0 -6
-7 -5 -15 2 -8 7 -15 17 -15 22 0 6 7 5 15 -2 8 -7 15 -17 15 -22z m-1360
-588 c0 -5 -7 -10 -16 -10 -8 0 -12 5 -9 10 3 6 10 10 16 10 5 0 9 -4 9 -10z
m1690 -382 c0 -13 -5 -30 -10 -38 -7 -11 -10 -5 -10 23 0 20 5 37 10 37 6 0
10 -10 10 -22z m-2063 -181 c-7 -18 11 -59 23 -52 5 3 9 -14 9 -42 -1 -56 1
-65 27 -117 18 -37 20 -38 59 -33 46 7 68 -2 56 -22 -5 -8 -14 -10 -21 -6 -7
4 -16 2 -20 -6 -7 -10 -12 -10 -26 2 -10 8 -15 9 -11 3 10 -17 -19 -25 -50
-13 -14 5 -41 23 -60 39 -18 16 -44 32 -57 36 -16 4 -23 12 -22 22 2 10 7 40
11 67 4 28 12 59 18 70 6 11 12 22 13 25 0 3 4 12 8 20 8 19 50 25 43 7z
m2014 -85 c-20 -14 -237 -112 -248 -112 -1 0 -3 9 -3 19 0 15 19 27 83 52 133
52 151 58 172 58 18 0 18 -1 -4 -17z m-376 -142 c3 -6 -6 -15 -22 -20 -15 -6
-37 -15 -48 -20 -11 -5 -45 -14 -75 -20 -30 -6 -66 -13 -80 -17 -17 -4 -22 -2
-15 4 17 17 204 75 216 67 8 -4 9 -3 5 4 -4 7 -3 12 3 12 5 0 13 -5 16 -10z
m371 -24 c4 10 61 10 72 0 6 -7 -49 -33 -77 -37 -13 -2 -26 2 -28 9 -3 6 0 12
6 12 6 0 8 8 5 18 -5 15 -4 15 6 2 8 -10 13 -11 16 -4z m-1046 -6 c-14 -4 -36
-8 -50 -8 -22 0 -22 1 5 8 17 4 39 8 50 8 16 0 15 -2 -5 -8z m-153 -17 c5 -14
-13 -19 -89 -28 -33 -4 -59 -2 -62 4 -9 14 8 22 62 30 63 10 85 8 89 -6z m66
0 c-7 -2 -19 -2 -25 0 -7 3 -2 5 12 5 14 0 19 -2 13 -5z m494 -48 c7 -28 13
-61 13 -75 0 -21 -5 -17 -30 25 -34 57 -40 108 -13 103 11 -2 21 -21 30 -53z
m-324 32 c6 -15 -25 -22 -232 -57 -90 -16 -117 -17 -123 -7 -12 19 -10 24 17
29 22 5 23 3 13 -10 -12 -13 -6 -14 44 -9 69 8 88 15 88 32 0 9 17 16 43 19
23 3 53 7 67 10 53 8 78 5 83 -7z m-459 -72 c4 -10 -1 -15 -14 -15 -20 0 -26
11 -13 23 10 11 20 8 27 -8z m2551 -95 c3 -6 -4 -10 -18 -10 -30 0 -70 -42
-105 -110 -15 -29 -32 -51 -37 -49 -27 11 23 121 72 158 30 22 78 28 88 11z
m-115 -15 c-7 -8 -18 -15 -25 -15 -7 0 -18 7 -25 15 -11 13 -7 15 25 15 32 0
36 -2 25 -15z m-154 -10 c-23 -18 -161 -22 -151 -5 4 6 9 9 13 6 4 -2 16 0 27
5 11 4 45 8 75 8 50 0 53 -1 36 -14z m-2191 -65 c4 -6 -7 -10 -27 -9 -31 1
-32 1 -8 9 14 4 26 8 27 9 1 1 5 -3 8 -9z m12 -186 c-3 -3 -12 -4 -19 -1 -8 3
-5 6 6 6 11 1 17 -2 13 -5z m81 -1 c-10 -2 -26 -2 -35 0 -10 3 -2 5 17 5 19 0
27 -2 18 -5z m2102 -58 c4 3 10 -2 14 -10 7 -18 -3 -19 -26 -1 -10 7 -14 16
-11 20 4 4 9 2 11 -3 2 -6 7 -9 12 -6z m-4710 -125 c0 -5 -4 -10 -10 -10 -5 0
-10 5 -10 10 0 6 5 10 10 10 6 0 10 -4 10 -10z m4816 -116 c-5 -24 -11 -33
-17 -27 -6 6 -7 26 -3 47 4 25 10 34 17 27 5 -5 7 -25 3 -47z m-4656 -95 c0
-14 -17 -10 -23 5 -4 10 -1 13 9 9 7 -3 14 -9 14 -14z m569 -42 c-7 -7 -21
-13 -31 -13 -18 0 -18 1 -2 13 10 7 24 13 31 13 11 0 11 -3 2 -13z m-19 -114
c-12 -24 -27 -43 -33 -43 -7 0 -6 4 3 10 13 8 13 10 -1 10 -25 0 -30 25 -7 39
17 10 18 15 6 28 -9 11 -9 14 -1 10 7 -4 20 0 30 10 17 18 18 18 21 -1 2 -11
-6 -39 -18 -63z"/>
<path d="M4230 7800 c0 -5 5 -10 11 -10 5 0 7 5 4 10 -3 6 -8 10 -11 10 -2 0
-4 -4 -4 -10z"/>
<path d="M4260 7800 c0 -5 5 -10 11 -10 5 0 7 5 4 10 -3 6 -8 10 -11 10 -2 0
-4 -4 -4 -10z"/>
<path d="M4600 8425 c0 -8 2 -15 4 -15 2 0 6 7 10 15 3 8 1 15 -4 15 -6 0 -10
-7 -10 -15z"/>
<path d="M5695 7765 c-16 -7 -33 -11 -37 -8 -5 2 -8 -8 -8 -23 0 -26 0 -27 20
-9 11 10 21 15 21 12 1 -4 2 -11 3 -16 0 -5 4 -13 9 -17 4 -4 7 -15 7 -25 0
-9 6 -19 14 -22 19 -7 38 41 34 84 -3 39 -18 44 -63 24z"/>
<path d="M5101 7692 c-1 -8 6 -26 14 -40 8 -15 20 -40 25 -56 6 -16 13 -26 16
-23 9 9 -27 117 -36 112 -5 -3 -11 1 -13 7 -4 10 -6 10 -6 0z"/>
<path d="M5375 7170 c3 -5 8 -10 11 -10 2 0 4 5 4 10 0 6 -5 10 -11 10 -5 0
-7 -4 -4 -10z"/>
<path d="M5400 7100 c0 -5 5 -10 11 -10 5 0 7 5 4 10 -3 6 -8 10 -11 10 -2 0
-4 -4 -4 -10z"/>
<path d="M5057 6480 c7 -42 9 -45 16 -27 3 7 -1 24 -9 38 -13 23 -13 23 -7
-11z"/>
<path d="M4986 5851 c-4 -5 3 -7 14 -4 23 6 26 13 6 13 -8 0 -17 -4 -20 -9z"/>
<path d="M4960 5789 c0 -19 -12 -65 -25 -104 -14 -38 -25 -71 -25 -72 0 -1
-15 -9 -34 -18 -25 -12 -33 -22 -29 -33 6 -20 -62 48 -69 69 -3 8 -8 12 -11 9
-4 -4 89 -170 105 -185 2 -3 26 61 52 141 44 134 58 206 42 221 -3 4 -6 -9 -6
-28z"/>
<path d="M4568 5693 c7 -3 16 -2 19 1 4 3 -2 6 -13 5 -11 0 -14 -3 -6 -6z"/>
<path d="M4628 5683 c7 -3 16 -2 19 1 4 3 -2 6 -13 5 -11 0 -14 -3 -6 -6z"/>
<path d="M4468 5673 c7 -3 16 -2 19 1 4 3 -2 6 -13 5 -11 0 -14 -3 -6 -6z"/>
<path d="M4683 5673 c9 -2 23 -2 30 0 6 3 -1 5 -18 5 -16 0 -22 -2 -12 -5z"/>
<path d="M4436 5634 c-3 -9 -16 -15 -28 -14 -36 3 -44 0 -28 -10 8 -5 24 -7
35 -4 11 3 39 -2 63 -10 27 -10 40 -11 36 -4 -5 8 -1 9 12 4 36 -14 -8 22 -48
38 -32 14 -37 14 -42 0z"/>
<path d="M4790 5483 c0 -20 3 -33 7 -29 11 11 12 66 2 66 -5 0 -9 -16 -9 -37z"/>
<path d="M4810 5492 c0 -4 5 -13 12 -20 7 -7 8 -12 3 -12 -6 0 -18 -7 -28 -14
-17 -14 -18 -16 -2 -40 9 -14 15 -31 12 -38 -3 -8 -6 -6 -6 5 -1 14 -5 16 -18
9 -23 -12 -59 4 -108 46 -21 17 -43 32 -49 31 -6 0 -5 -3 2 -6 6 -2 10 -9 7
-13 -3 -5 -20 0 -39 11 -26 15 -33 16 -33 4 0 -8 4 -12 9 -9 4 3 8 1 8 -4 0
-11 96 -112 107 -112 4 0 19 -10 33 -23 20 -18 25 -33 28 -77 5 -113 9 -150
40 -322 5 -26 14 -53 20 -60 12 -15 23 -176 13 -182 -4 -3 -15 18 -24 45 -10
27 -22 49 -27 49 -6 0 -10 11 -10 24 0 21 -33 94 -70 155 -52 85 -134 159
-202 180 -20 7 -42 19 -48 27 -7 7 -23 14 -36 14 -13 0 -24 4 -24 8 0 12 -50
33 -61 27 -5 -4 -9 2 -9 12 0 15 -2 16 -10 3 -9 -13 -10 -13 -10 0 0 13 -2 13
-9 0 -11 -16 -3 -70 12 -85 7 -7 7 -5 2 5 -4 8 2 5 14 -7 12 -13 27 -23 34
-23 27 0 195 -91 234 -127 68 -61 149 -199 138 -234 -3 -9 1 -34 9 -55 8 -22
17 -64 21 -96 4 -34 12 -58 20 -62 10 -4 13 -17 10 -45 -2 -23 0 -43 5 -46 8
-5 4 -70 -5 -85 -7 -11 21 -81 30 -73 4 5 5 -1 1 -11 -4 -11 -2 -22 4 -26 6
-4 12 -17 15 -29 2 -13 15 -34 28 -47 15 -14 30 -50 41 -95 21 -89 32 -180 18
-161 -5 8 -12 13 -16 13 -3 -1 -7 2 -8 7 -2 11 -31 31 -47 32 -10 0 -11 -8 -7
-27 4 -16 7 -37 8 -48 0 -30 20 -78 38 -93 11 -10 12 -15 3 -18 -9 -4 -6 -14
8 -37 10 -18 19 -40 19 -50 0 -18 23 -66 46 -97 23 -30 54 -132 54 -178 1 -26
7 -65 15 -87 8 -22 15 -52 15 -66 0 -14 3 -29 8 -33 4 -4 12 -22 19 -39 15
-41 17 -7 3 43 -12 39 -66 323 -80 415 -5 33 -20 123 -35 200 -42 226 -75 460
-86 610 -5 77 -16 215 -25 307 -12 136 -16 314 -12 551 1 15 4 27 9 27 7 0 10
29 10 95 0 16 -5 31 -11 33 -5 2 -10 10 -10 18 0 8 -4 14 -10 14 -5 0 -10 -4
-10 -8z m27 -69 c-3 -10 -5 -4 -5 12 0 17 2 24 5 18 2 -7 2 -21 0 -30z"/>
<path d="M4252 5418 c2 -23 9 -32 24 -34 12 -2 27 2 33 10 8 10 5 16 -14 26
-14 7 -25 17 -25 22 0 4 -5 8 -11 8 -6 0 -9 -14 -7 -32z"/>
<path d="M5094 5132 c-21 -3 -21 -5 -7 -40 14 -35 16 -37 64 -38 34 -1 48 2
44 10 -3 6 -8 18 -11 26 -7 20 -64 46 -90 42z"/>
<path d="M5071 5070 c0 -14 7 -65 15 -115 7 -49 16 -119 18 -154 3 -36 9 -110
15 -165 6 -56 16 -144 21 -196 6 -52 16 -133 22 -180 l13 -85 3 58 c2 33 7 55
13 52 5 -4 9 -2 9 4 0 6 6 8 14 5 13 -5 24 37 41 165 3 24 9 49 12 54 6 10 14
101 14 166 0 19 -5 37 -12 41 -8 5 -8 9 0 11 19 7 24 64 7 82 -9 9 -15 20 -14
24 2 8 -12 44 -40 102 -9 18 -27 38 -39 44 -14 6 -23 19 -23 34 0 12 -3 23 -7
24 -5 0 -16 2 -25 4 -14 2 -18 -4 -18 -26 0 -19 -4 -28 -11 -23 -6 3 -8 16 -5
28 2 11 -2 32 -9 46 l-14 25 0 -25z"/>
<path d="M5372 4529 c0 -53 -5 -100 -15 -129 l-16 -45 27 -22 c29 -23 30 -22
-26 -39 -10 -3 -11 -22 -6 -81 3 -43 7 -81 10 -84 2 -3 15 -4 29 -1 16 3 25 0
25 -8 0 -7 -8 -10 -18 -8 -26 7 -45 -26 -37 -64 6 -24 9 -27 17 -17 7 10 8 8
5 -8 -6 -27 9 -31 16 -5 4 13 5 11 6 -5 0 -13 -3 -23 -9 -23 -18 0 -10 -22 10
-27 13 -4 20 -14 21 -32 0 -14 3 -20 6 -13 4 11 -20 502 -31 645 -6 72 -15 49
-14 -34z"/>
<path d="M5440 4051 c0 -24 46 -34 66 -14 23 24 16 33 -26 33 -33 0 -40 -4
-40 -19z"/>
<path d="M5550 4040 c0 -5 5 -10 11 -10 5 0 7 5 4 10 -3 6 -8 10 -11 10 -2 0
-4 -4 -4 -10z"/>
<path d="M5422 3850 c0 -14 2 -19 5 -12 2 6 2 18 0 25 -3 6 -5 1 -5 -13z"/>
<path d="M5221 3544 c0 -11 3 -14 6 -6 3 7 2 16 -1 19 -3 4 -6 -2 -5 -13z"/>
<path d="M5241 3433 c0 -11 3 -13 6 -5 2 6 9 10 14 6 5 -3 9 0 9 5 0 6 -7 11
-15 11 -8 0 -15 -8 -14 -17z"/>
<path d="M5310 3425 c0 -5 5 -17 10 -25 5 -8 10 -10 10 -5 0 6 -5 17 -10 25
-5 8 -10 11 -10 5z"/>
<path d="M5330 3358 c0 -9 5 -20 10 -23 13 -8 13 5 0 25 -8 13 -10 13 -10 -2z"/>
<path d="M5465 3229 c18 -5 33 -5 39 1 7 7 -4 10 -29 9 -40 -1 -40 -1 -10 -10z"/>
<path d="M5505 3200 c3 -5 8 -10 11 -10 2 0 4 5 4 10 0 6 -5 10 -11 10 -5 0
-7 -4 -4 -10z"/>
<path d="M5531 3188 c-1 -14 2 -33 5 -42 8 -20 44 -21 44 -1 0 8 -6 15 -14 15
-8 0 -19 12 -24 28 l-10 27 -1 -27z"/>
<path d="M5089 3078 c4 -28 6 -29 9 -9 2 13 0 27 -5 32 -6 6 -7 -3 -4 -23z"/>
<path d="M5101 3015 c0 -16 6 -52 14 -80 l15 -50 -6 53 c-3 29 -10 65 -14 80
l-8 27 -1 -30z"/>
<path d="M5132 2855 c0 -16 2 -22 5 -12 2 9 2 23 0 30 -3 6 -5 -1 -5 -18z"/>
<path d="M6122 2673 c2 -9 10 -18 18 -20 12 -4 13 -3 1 5 -7 5 -10 15 -7 21 4
6 2 11 -4 11 -6 0 -10 -8 -8 -17z"/>
<path d="M5481 2504 c0 -11 3 -14 6 -6 3 7 2 16 -1 19 -3 4 -6 -2 -5 -13z"/>
<path d="M4968 1903 c7 -3 16 -2 19 1 4 3 -2 6 -13 5 -11 0 -14 -3 -6 -6z"/>
<path d="M4962 1867 c2 -14 11 -23 26 -25 21 -3 22 -1 13 16 -6 11 -18 22 -26
26 -13 4 -16 1 -13 -17z"/>
<path d="M4921 1856 c-10 -12 -8 -16 9 -21 28 -9 38 2 19 21 -14 13 -17 13
-28 0z"/>
<path d="M4880 1801 c0 -6 17 -7 38 -4 51 8 53 13 4 13 -23 0 -42 -4 -42 -9z"/>
<path d="M5314 1575 c-4 -14 -1 -32 6 -40 17 -21 5 -45 -23 -45 -13 0 -26 -3
-30 -6 -7 -8 19 -35 47 -49 28 -14 31 -39 11 -81 -13 -28 -14 -38 -4 -50 17
-20 18 -65 2 -71 -18 -7 -16 -20 7 -45 17 -19 20 -19 26 -5 3 9 3 62 0 117 -3
55 -9 145 -12 200 -6 97 -17 126 -30 75z"/>
<path d="M5430 1420 c0 -5 5 -10 11 -10 5 0 7 5 4 10 -3 6 -8 10 -11 10 -2 0
-4 -4 -4 -10z"/>
<path d="M5627 1383 c-4 -6 0 -19 9 -28 13 -13 19 -14 25 -4 4 7 5 17 2 22 -3
5 -9 4 -13 -3 -6 -9 -9 -8 -12 6 -2 13 -6 15 -11 7z"/>
<path d="M5670 1350 c0 -5 5 -10 10 -10 6 0 10 5 10 10 0 6 -4 10 -10 10 -5 0
-10 -4 -10 -10z"/>
<path d="M5631 1314 c0 -11 3 -14 6 -6 3 7 2 16 -1 19 -3 4 -6 -2 -5 -13z"/>
<path d="M5661 1314 c0 -11 3 -14 6 -6 3 7 2 16 -1 19 -3 4 -6 -2 -5 -13z"/>
<path d="M6000 1269 c0 -5 5 -7 10 -4 6 3 10 8 10 11 0 2 -4 4 -10 4 -5 0 -10
-5 -10 -11z"/>
<path d="M5550 1220 c0 -5 4 -10 9 -10 6 0 13 5 16 10 3 6 -1 10 -9 10 -9 0
-16 -4 -16 -10z"/>
<path d="M4998 1183 c7 -3 16 -2 19 1 4 3 -2 6 -13 5 -11 0 -14 -3 -6 -6z"/>
<path d="M3310 399 c0 -5 5 -7 10 -4 6 3 10 8 10 11 0 2 -4 4 -10 4 -5 0 -10
-5 -10 -11z"/>
<path d="M3363 315 c0 -8 4 -12 9 -9 5 3 6 10 3 15 -9 13 -12 11 -12 -6z"/>
<path d="M2740 305 c0 -5 5 -17 10 -25 5 -8 10 -10 10 -5 0 6 -5 17 -10 25 -5
8 -10 11 -10 5z"/>
</g>
</svg>
